<svg xmlns="http://www.w3.org/2000/svg" xmlns:xlink="http://www.w3.org/1999/xlink" width="1080" zoomAndPan="magnify" viewBox="0 0 810 809.999993" height="1080" preserveAspectRatio="xMidYMid meet" version="1.0"><defs><clipPath id="f60012eeda"><path d="M 177.515625 177.515625 L 632.484375 177.515625 L 632.484375 632.484375 L 177.515625 632.484375 Z M 177.515625 177.515625 " clip-rule="nonzero"/></clipPath><clipPath id="397145aaf6"><path d="M 493.644531 177.515625 L 316.355469 177.515625 C 279.53125 177.515625 244.21875 192.144531 218.183594 218.183594 C 192.144531 244.21875 177.515625 279.53125 177.515625 316.355469 L 177.515625 493.644531 C 177.515625 530.46875 192.144531 565.78125 218.183594 591.816406 C 244.21875 617.855469 279.53125 632.484375 316.355469 632.484375 L 493.644531 632.484375 C 530.46875 632.484375 565.78125 617.855469 591.816406 591.816406 C 617.855469 565.78125 632.484375 530.46875 632.484375 493.644531 L 632.484375 316.355469 C 632.484375 279.53125 617.855469 244.21875 591.816406 218.183594 C 565.78125 192.144531 530.46875 177.515625 493.644531 177.515625 Z M 493.644531 177.515625 " clip-rule="nonzero"/></clipPath><clipPath id="0eedaf30d8"><path d="M 264.058594 243 L 546 243 L 546 567 L 264.058594 567 Z M 264.058594 243 " clip-rule="nonzero"/></clipPath></defs><g clip-path="url(#f60012eeda)"><g clip-path="url(#397145aaf6)"><path fill="#000000" d="M 177.515625 177.515625 L 632.484375 177.515625 L 632.484375 632.484375 L 177.515625 632.484375 Z M 177.515625 177.515625 " fill-opacity="1" fill-rule="nonzero"/></g></g><g clip-path="url(#0eedaf30d8)"><path fill="#ffffff" d="M 538.820312 390.914062 L 426.125 390.914062 C 422.238281 390.914062 419.082031 394.070312 419.082031 397.957031 L 419.082031 433.175781 C 419.082031 437.0625 422.238281 440.21875 426.125 440.21875 L 482.472656 440.21875 L 482.472656 445.5 C 482.472656 484.238281 457.027344 510.652344 412.039062 510.652344 C 359.496094 510.652344 327.515625 471.582031 327.515625 404.484375 C 327.515625 338.207031 358.746094 299.347656 410.277344 299.347656 C 446.15625 299.347656 464.078125 315.386719 477.113281 344.40625 C 478.261719 346.953125 480.753906 348.652344 483.550781 348.652344 L 535.25 348.652344 C 537.230469 348.652344 538.800781 347.019531 538.816406 345.128906 C 538.816406 344.855469 538.785156 344.582031 538.722656 344.304688 C 524.007812 280.976562 475.238281 243 408.980469 243 C 320.988281 243 264.125 306.546875 264.125 404.894531 C 264.125 504.882812 319.945312 567 409.800781 567 C 492.453125 567 545.863281 514.933594 545.863281 434.351562 L 545.863281 397.957031 C 545.863281 394.070312 542.710938 390.914062 538.820312 390.914062 Z M 538.820312 390.914062 " fill-opacity="1" fill-rule="nonzero"/></g></svg>