<svg xmlns="http://www.w3.org/2000/svg" xmlns:xlink="http://www.w3.org/1999/xlink" width="1080" zoomAndPan="magnify" viewBox="0 0 810 809.999993" height="1080" preserveAspectRatio="xMidYMid meet" version="1.0"><defs><clipPath id="9b78a55f2e"><path d="M 81 76.863281 L 737.273438 76.863281 L 737.273438 733.136719 L 81 733.136719 Z M 81 76.863281 " clip-rule="nonzero"/></clipPath><clipPath id="f4c1b48f39"><path d="M 544.960938 76.863281 L 273.316406 76.863281 C 225.292969 76.863281 179.238281 95.9375 145.28125 129.894531 L 134.03125 141.144531 C 100.078125 175.101562 81 221.15625 81 269.175781 L 81 540.824219 C 81 588.84375 100.078125 634.898438 134.03125 668.855469 L 145.28125 680.105469 C 179.238281 714.0625 225.292969 733.136719 273.316406 733.136719 L 544.960938 733.136719 C 592.980469 733.136719 639.035156 714.0625 672.992188 680.105469 L 684.242188 668.855469 C 718.199219 634.898438 737.273438 588.84375 737.273438 540.824219 L 737.273438 269.175781 C 737.273438 221.15625 718.199219 175.101562 684.242188 141.144531 L 672.992188 129.894531 C 639.035156 95.9375 592.980469 76.863281 544.960938 76.863281 Z M 544.960938 76.863281 " clip-rule="nonzero"/></clipPath><clipPath id="90827c3edc"><path d="M 204 169.164062 L 614.210938 169.164062 L 614.210938 640.914062 L 204 640.914062 Z M 204 169.164062 " clip-rule="nonzero"/></clipPath></defs><g clip-path="url(#9b78a55f2e)"><g clip-path="url(#f4c1b48f39)"><path fill="#000000" d="M 81 76.863281 L 737.273438 76.863281 L 737.273438 733.136719 L 81 733.136719 Z M 81 76.863281 " fill-opacity="1" fill-rule="nonzero"/></g></g><g clip-path="url(#90827c3edc)"><path fill="#ffffff" d="M 603.953125 384.492188 L 439.894531 384.492188 C 434.234375 384.492188 429.640625 389.085938 429.640625 394.746094 L 429.640625 446.015625 C 429.640625 451.675781 434.234375 456.269531 439.894531 456.269531 L 521.921875 456.269531 L 521.921875 463.957031 C 521.921875 520.351562 484.878906 558.804688 419.386719 558.804688 C 342.894531 558.804688 296.34375 501.925781 296.34375 404.25 C 296.34375 307.765625 341.808594 251.195312 416.824219 251.195312 C 469.054688 251.195312 495.140625 274.542969 514.121094 316.789062 C 515.792969 320.5 519.421875 322.96875 523.492188 322.96875 L 598.753906 322.96875 C 601.636719 322.96875 603.921875 320.59375 603.941406 317.84375 C 603.941406 317.445312 603.902344 317.042969 603.808594 316.644531 C 582.390625 224.453125 511.394531 169.164062 414.9375 169.164062 C 286.839844 169.164062 204.058594 261.675781 204.058594 404.847656 C 204.058594 550.40625 285.320312 640.832031 416.125 640.832031 C 536.453125 640.832031 614.207031 565.039062 614.207031 447.726562 L 614.207031 394.746094 C 614.207031 389.085938 609.613281 384.492188 603.953125 384.492188 Z M 603.953125 384.492188 " fill-opacity="1" fill-rule="nonzero"/></g></svg>